<svg width="21497" height="4289" viewBox="0 0 21497 4289" fill="none" xmlns="http://www.w3.org/2000/svg">
<path d="M6903.98 1431.4C7060.46 1352.11 7235.32 1312.72 7428.03 1312.72C7654.87 1312.72 7859.66 1366.81 8042.92 1475.51C8226.18 1584.2 8370.59 1738.58 8476.13 1938.64C8581.68 2138.71 8634.71 2367.65 8634.71 2625.48C8634.71 2883.3 8581.68 3113.29 8476.13 3316.51C8370.59 3519.72 8225.13 3678.3 8040.82 3791.2C7855.99 3904.62 7651.72 3961.33 7428.56 3961.33C7230.07 3961.33 7053.63 3922.47 6899.78 3844.76C6745.92 3767.04 6624.1 3667.8 6534.31 3547.03V3919.32H6003.43V475.189H6534.31V1736.48C6624.1 1612.56 6747.5 1510.69 6904.51 1431.4H6903.98ZM7984.64 2167.06C7911.65 2038.41 7815.56 1940.74 7695.83 1874.06C7576.11 1807.37 7447.98 1773.76 7311.46 1773.76C7174.93 1773.76 7051.53 1807.89 6931.81 1876.16C6812.09 1944.42 6715.99 2043.66 6643 2173.89C6570.02 2304.11 6533.78 2457.97 6533.78 2634.93C6533.78 2811.89 6570.02 2966.27 6643 3098.07C6715.99 3229.87 6812.09 3330.16 6931.81 3398.42C7051.53 3466.69 7178.08 3500.82 7311.46 3500.82C7444.83 3500.82 7576.11 3465.64 7695.83 3395.8C7815.56 3325.96 7911.65 3224.62 7984.64 3090.72C8057.63 2957.34 8093.86 2801.91 8093.86 2625.48C8093.86 2449.04 8057.1 2295.71 7984.64 2167.06V2167.06Z" fill="white"/>
<path d="M9144.1 1941.27C9251.22 1742.78 9397.2 1588.4 9582.03 1478.13C9766.87 1367.86 9971.13 1312.73 10194.3 1312.73C10395.9 1312.73 10572.4 1352.11 10723.1 1431.4C10873.8 1510.69 10994 1608.88 11083.8 1727.03V1354.73H11619.4V3919.33H11083.8V3537.58C10993.5 3658.35 10871.2 3759.7 10715.7 3840.04C10560.3 3920.9 10383.3 3960.81 10184.9 3960.81C9964.31 3960.81 9762.67 3904.1 9579.41 3790.68C9396.15 3677.26 9251.22 3519.2 9144.1 3315.99C9036.98 3112.77 8983.42 2882.25 8983.42 2624.95C8983.42 2367.65 9036.98 2139.24 9144.1 1940.75V1941.27ZM10974.1 2173.89C10901.1 2043.67 10805.5 1944.42 10687.9 1876.16C10569.8 1807.9 10442.7 1773.76 10306.1 1773.76C10169.6 1773.76 10042 1807.37 9924.4 1874.06C9806.25 1940.75 9710.68 2038.42 9638.22 2167.07C9565.23 2295.72 9529 2448.52 9529 2625.48C9529 2802.44 9565.23 2957.34 9638.22 3090.72C9711.21 3224.09 9807.3 3325.96 9927.03 3395.8C10046.2 3465.64 10173.3 3500.82 10306.7 3500.82C10440.1 3500.82 10570.3 3466.69 10688.4 3398.43C10806.6 3330.16 10901.6 3229.87 10974.6 3098.07C11047.6 2966.27 11083.8 2811.89 11083.8 2634.93C11083.8 2457.97 11047.1 2304.64 10974.6 2173.89H10974.1Z" fill="white"/>
<path d="M14155.1 1438.75C14314.8 1522.77 14439.7 1646.69 14530 1811.05C14619.8 1975.4 14665 2174.42 14665 2407.04V3919.85H14138.8V2486.33C14138.8 2256.86 14081.6 2080.42 13966.6 1958.07C13851.6 1835.73 13695.1 1774.29 13496.1 1774.29C13297.1 1774.29 13140.1 1835.73 13023.5 1958.07C12907 2080.42 12848.7 2256.86 12848.7 2486.33V3919.85H12317.8V1354.73H12848.7V1647.74C12935.3 1542.19 13046.6 1460.28 13181.6 1400.94C13316.5 1342.13 13460.4 1312.73 13612.2 1312.73C13813.8 1312.73 13995 1354.73 14154.6 1438.22L14155.1 1438.75Z" fill="white"/>
<path d="M16355.2 2639.66L17538.3 3919.85H16821L15871.1 2816.62V3919.85H15340.2V475.194H15871.1V2476.88L16802.6 1355.26H17538.3L16355.2 2640.18V2639.66Z" fill="white"/>
<path d="M17947.9 917.324C17882.7 852.211 17850.2 771.346 17850.2 675.252C17850.2 579.159 17882.7 498.293 17947.9 433.181C18013 368.068 18093.8 335.512 18189.9 335.512C18286 335.512 18362.2 368.068 18427.3 433.181C18492.4 498.293 18524.9 579.159 18524.9 675.252C18524.9 771.346 18492.4 852.211 18427.3 917.324C18362.2 982.436 18282.9 1014.99 18189.9 1014.99C18097 1014.99 18013 982.436 17947.9 917.324ZM18450.9 1354.73V3919.33H17920V1354.73H18450.9Z" fill="white"/>
<path d="M20986.7 1438.75C21146.3 1522.77 21271.3 1646.69 21361.6 1811.05C21451.4 1975.4 21496.5 2174.42 21496.5 2407.04V3919.85H20970.4V2486.33C20970.4 2256.86 20913.2 2080.42 20798.2 1958.08C20683.2 1835.73 20526.7 1774.29 20327.7 1774.29C20128.7 1774.29 19971.6 1835.73 19855.1 1958.08C19738.5 2080.42 19680.2 2256.86 19680.2 2486.33V3919.85H19149.3V1354.73H19680.2V1647.74C19766.9 1542.2 19878.2 1460.28 20013.1 1400.94C20148.1 1342.13 20292 1312.73 20443.7 1312.73C20645.4 1312.73 20826.5 1354.73 20986.1 1438.23L20986.7 1438.75Z" fill="white"/>
<path d="M1696.58 4026.45C2488.87 4026.45 3131.15 3384.17 3131.15 2591.87C3131.15 1799.58 2488.87 1157.3 1696.58 1157.3C904.282 1157.3 262 1799.58 262 2591.87C262 3384.17 904.282 4026.45 1696.58 4026.45Z" stroke="white" stroke-width="523.2" stroke-miterlimit="10"/>
<path d="M4007.02 2591.87C4007.02 1304.85 2972.57 262 1696.58 262" stroke="white" stroke-width="523.2" stroke-miterlimit="10"/>
</svg>
